/* XPM */
static char *b9cdfa2bfa784b92cd5f02fac7936e41bwB2Fo22hOLZ2GJ3[] = {
/* columns rows colors chars-per-pixel */
"64 64 256 2 ",
"   c black",
".  c #010101",
"X  c #020202",
"o  c gray1",
"O  c #040404",
"+  c gray2",
"@  c #060606",
"#  c #070707",
"$  c gray3",
"%  c #090909",
"&  c gray4",
"*  c #0B0B0B",
"=  c #0C0C0C",
"-  c gray5",
";  c #0E0E0E",
":  c gray6",
">  c #101010",
",  c #111111",
"<  c gray7",
"1  c #131313",
"2  c gray8",
"3  c #151515",
"4  c #161616",
"5  c gray9",
"6  c #181818",
"7  c #191919",
"8  c gray10",
"9  c #1B1B1B",
"0  c gray11",
"q  c #1D1D1D",
"w  c #1E1E1E",
"e  c gray12",
"r  c #202020",
"t  c gray13",
"y  c #222222",
"u  c #232323",
"i  c gray14",
"p  c #252525",
"a  c gray15",
"s  c #272727",
"d  c #282828",
"f  c gray16",
"g  c #2A2A2A",
"h  c gray17",
"j  c #2C2C2C",
"k  c #2D2D2D",
"l  c gray18",
"z  c #2F2F2F",
"x  c gray19",
"c  c #313131",
"v  c #323232",
"b  c gray20",
"n  c #343434",
"m  c #353535",
"M  c gray21",
"N  c #373737",
"B  c gray22",
"V  c #393939",
"C  c #3A3A3A",
"Z  c gray23",
"A  c #3C3C3C",
"S  c gray24",
"D  c #3E3E3E",
"F  c #3F3F3F",
"G  c gray25",
"H  c #414141",
"J  c gray26",
"K  c #434343",
"L  c #444444",
"P  c gray27",
"I  c #464646",
"U  c gray28",
"Y  c #484848",
"T  c #494949",
"R  c gray29",
"E  c #4B4B4B",
"W  c #4C4C4C",
"Q  c gray30",
"!  c #4E4E4E",
"~  c gray31",
"^  c #505050",
"/  c #515151",
"(  c gray32",
")  c #535353",
"_  c gray33",
"`  c #555555",
"'  c #565656",
"]  c gray34",
"[  c #585858",
"{  c gray35",
"}  c #5A5A5A",
"|  c #5B5B5B",
" . c gray36",
".. c #5D5D5D",
"X. c gray37",
"o. c #5F5F5F",
"O. c #606060",
"+. c gray38",
"@. c #626262",
"#. c gray39",
"$. c #646464",
"%. c #656565",
"&. c gray40",
"*. c #676767",
"=. c #686868",
"-. c DimGray",
";. c #6A6A6A",
":. c gray42",
">. c #6C6C6C",
",. c #6D6D6D",
"<. c gray43",
"1. c #6F6F6F",
"2. c gray44",
"3. c #717171",
"4. c #727272",
"5. c gray45",
"6. c #747474",
"7. c gray46",
"8. c #767676",
"9. c #777777",
"0. c gray47",
"q. c #797979",
"w. c gray48",
"e. c #7B7B7B",
"r. c #7C7C7C",
"t. c gray49",
"y. c #7E7E7E",
"u. c gray50",
"i. c #808080",
"p. c #818181",
"a. c gray51",
"s. c #838383",
"d. c #848484",
"f. c gray52",
"g. c #868686",
"h. c gray53",
"j. c #888888",
"k. c #898989",
"l. c gray54",
"z. c #8B8B8B",
"x. c gray55",
"c. c #8D8D8D",
"v. c #8E8E8E",
"b. c gray56",
"n. c #909090",
"m. c gray57",
"M. c #929292",
"N. c #939393",
"B. c gray58",
"V. c #959595",
"C. c gray59",
"Z. c #979797",
"A. c #989898",
"S. c gray60",
"D. c #9A9A9A",
"F. c #9B9B9B",
"G. c gray61",
"H. c #9D9D9D",
"J. c gray62",
"K. c #9F9F9F",
"L. c #A0A0A0",
"P. c gray63",
"I. c #A2A2A2",
"U. c gray64",
"Y. c #A4A4A4",
"T. c #A5A5A5",
"R. c gray65",
"E. c #A7A7A7",
"W. c gray66",
"Q. c #A9A9A9",
"!. c #AAAAAA",
"~. c gray67",
"^. c #ACACAC",
"/. c gray68",
"(. c #AEAEAE",
"). c #AFAFAF",
"_. c gray69",
"`. c #B1B1B1",
"'. c #B2B2B2",
"]. c gray70",
"[. c #B4B4B4",
"{. c gray71",
"}. c #B6B6B6",
"|. c #B7B7B7",
" X c gray72",
".X c #B9B9B9",
"XX c gray73",
"oX c #BBBBBB",
"OX c #BCBCBC",
"+X c gray74",
"@X c gray",
"#X c gray75",
"$X c #C0C0C0",
"%X c #C1C1C1",
"&X c gray76",
"*X c #C3C3C3",
"=X c gray77",
"-X c #C5C5C5",
";X c #C6C6C6",
":X c gray78",
">X c #C8C8C8",
",X c gray79",
"<X c #CACACA",
"1X c #CBCBCB",
"2X c gray80",
"3X c #CDCDCD",
"4X c #CECECE",
"5X c gray81",
"6X c #D0D0D0",
"7X c gray82",
"8X c #D2D2D2",
"9X c LightGray",
"0X c gray83",
"qX c #D5D5D5",
"wX c gray84",
"eX c #D7D7D7",
"rX c #D8D8D8",
"tX c gray85",
"yX c #DADADA",
"uX c gray86",
"iX c gainsboro",
"pX c #DDDDDD",
"aX c gray87",
"sX c #DFDFDF",
"dX c gray88",
"fX c #E1E1E1",
"gX c #E2E2E2",
"hX c gray89",
"jX c #E4E4E4",
"kX c gray90",
"lX c #E6E6E6",
"zX c #E7E7E7",
"xX c gray91",
"cX c #E9E9E9",
"vX c #EAEAEA",
"bX c gray92",
"nX c #ECECEC",
"mX c gray93",
"MX c #EEEEEE",
"NX c #EFEFEF",
"BX c gray94",
"VX c #F1F1F1",
"CX c gray95",
"ZX c #F3F3F3",
"AX c #F4F4F4",
"SX c gray96",
"DX c #F6F6F6",
"FX c gray97",
"GX c #F8F8F8",
"HX c #F9F9F9",
"JX c gray98",
"KX c #FBFBFB",
"LX c gray99",
"PX c #FDFDFD",
"IX c #FEFEFE",
"UX c white",
/* pixels */
"UXUXUXUXUXUXUXUXUXUXUXUXUXUXUXUXUXUXUXUXUXUXUXUXUXUXUXUXUXUXUXUXIXIXIXIXIXIXIXIXUXUXUXUXUXUXUXUXUXUXUXUXUXUXUXUXUXUXUXUXUXUXUXUX",
"UXUXUXUXUXUXUXUXUXUXUXUXUXUXUXUXUXUXUXUXUXUXUXUXUXUXUXUXUXUXUXUXUXUXUXUXUXUXUXUXUXUXUXUXUXUXUXUXUXUXUXUXUXUXUXUXUXUXUXUXUXUXUXUX",
"UXUXUXUXUXUXUXUXUXUXUXUXUXUXUXUXUXUXUXUXUXUXUXUXUXUXUXUXUXUXUXUXUXUXUXUXUXUXUXUXUXUXUXUXUXUXUXUXUXUXUXUXUXUXUXUXUXUXUXUXUXUXUXUX",
"UXUXUXUXUXUXUXUXUXUXUXUXUXUXUXUXUXUXUXUXUXUXUXUXUXUXUXUXUXUXUXUXUXUXUXUXUXUXUXUXUXUXUXUXUXUXUXUXUXUXUXUXUXUXUXUXUXUXUXUXUXUXUXUX",
"UXUXUXUXUXUXUXUXUXUXUXUXUXUXUXUXUXUXUXUXUXUXUXUXUXUXUXUXUXUXUXUXUXUXUXUXUXUXUXUXUXUXUXUXUXUXUXUXUXUXUXUXUXUXUXUXUXUXUXUXUXUXUXUX",
"UXUXUXUXUXUXUXUXUXUXUXUXUXUXUXUXUXUXUXUXUXUXUXUXIXIXIXIXIXIXIXIXIXIXIXIXIXIXIXIXUXUXUXUXUXUXUXUXUXUXUXUXUXUXUXUXUXUXUXUXUXUXUXUX",
"UXUXUXUXUXUXUXUXUXUXUXUXUXUXUXUXUXUXUXUXUXUXUXUXIXIXIXIXIXIXIXIXPXPXPXPXPXPXPXPXUXUXUXUXUXUXUXUXUXUXUXUXUXUXUXUXUXUXUXUXUXUXUXUX",
"UXUXUXUXUXUXUXUXUXUXUXUXUXUXUXUXUXUXUXUXUXUXUXUXIXIXIXIXIXIXIXIXPXPXPXPXPXPXPXPXUXUXUXUXUXUXUXUXUXUXUXUXUXUXUXUXUXUXUXUXUXUXUXUX",
"UXUXUXUXUXUXUXUXUXUXUXUXUXUXUXUXKXUXUXUXGXUXUXIXUXJXUXKXHXGXMXHXMXDXMXLXUXFXJXUXIXLXUXKXKXUXPXUXUXUXUXUXUXUXUXUXUXUXUXUXUXUXUXUX",
"UXUXUXUXUXUXUXUXUXUXUXUXUXUXUXUXUXUXIXIXUXUXUXUXAXIXFXlXnXhX8XmXlX4XW.~.VXUXUXHXKXUXSXUXUXPXUXKXUXUXUXUXUXUXUXUXUXUXUXUXUXUXUXUX",
"UXUXUXUXUXUXUXUXUXUXUXUXUXUXUXUXJXPXGXUXJXUXGXPXBXqXaXhXaXCXFXjXG.o.P n ] oX%XnXJXUXGXUXLXUXUXKXUXUXUXUXUXUXUXUXUXUXUXUXUXUXUXUX",
"UXUXUXUXUXUXUXUXUXUXUXUXUXUXUXUXJXUXUXUXKXUXBXxXuXyXaXlXSXUXCXdXK.i._ a C x ;.-XUXcXUXJXZXUXUXUXUXUXUXUXUXUXUXUXUXUXUXUXUXUXUXUX",
"UXUXUXUXUXUXUXUXUXUXUXUXUXUXUXUXUXPXUXFXLXcXuX:X2XrXgXvXAXLXKXMX}.<.' O.V R e.lXKXqXBXUXDXUXPXUXUXUXUXUXUXUXUXUXUXUXUXUXUXUXUXUX",
"UXUXUXUXUXUXUXUXUXUXUXUXUXUXUXUXKXUXFXKXuX9X*X<XpX6XiXFXKXKXzX^.s.2.G J #.&.+XgXkX,X`.LXUXHXPXUXUXUXUXUXUXUXUXUXUXUXUXUXUXUXUXUX",
"UXUXUXUXUXUXUXUXUXUXUXUXUXUXUXUXHXUXGXhXoX-X*X1XoX0X5XdXDX,Xa.) B S / 2.5.{.CXSXhX4Xj.|.UXGXUXUXUXUXUXUXUXUXUXUXUXUXUXUXUXUXUXUX",
"UXUXUXUXUXUXUXUXUXUXUXUXUXUXUXUXIXGXSXZ.).E.;XG.|.aXSXLXkX>X<X<X2X;XeXxX1X@XBXLXLXfXx.:.HXJXUXIXUXUXUXUXUXUXUXUXUXUXUXUXUXUXUXUX",
"UXUXUXUXUXUXUXUXUXUXUXUXUXUXIXIXHXUXI.D.S.~.D.(.4XsXnXZXJXLXKXIXUXnXqXHXCXtX4X3XDXAX(.D $XUXUXUXUXUXUXUXUXUXUXUXUXUXUXUXUXUXUXUX",
"UXUXUXUXUXUXUXUXUXUXUXUXUXUXIXIXPX<X7.(.b.E.U.XX5XxXGXJXUXUXKXDXAXfXBXUXUXAXiX<XhXMX|.G T.DXIXUXUXUXUXUXUXUXUXUXUXUXUXUXUXUXUXUX",
"UXUXUXUXUXUXUXUXUXUXUXUXUXUXIXIXIXh.4.-.9.A.V.%X7XZXUXUXKXKXKXJXCXsXKXFXPXLXnXqX=XjX,X*.K.FXUXIXUXUXUXUXUXUXUXUXUXUXUXUXUXUXUXUX",
"UXUXUXUXUXUXUXUXUXUXUXUXUXUXIXIXbXW e.J ) w.G.E.lXHXUXKXJXLXIXUXSXmXUXUXLXUXGXiX*XwX].7.p.rXUXUXUXUXUXUXUXUXUXUXUXUXUXUXUXUXUXUX",
"UXUXUXUXUXUXUXUXUXUXUXUXUXUXIXIX*X,.` F _ q.W.4XUXJXZXSXIXUXLXUXHXLXKXUXHXIXUXvX1XOXc.t.=.'.LXIXUXUXUXUXUXUXUXUXUXUXUXUXUXUXUXUX",
"UXUXUXUXUXUXUXUXUXUXUXUXUXUXIXIX[.:.@.=.>.].hXBXKXJXGXHXGXMXMXLXKXUXAXUXFXKXUXIX4XF.2.p.[ K.JXLXUXUXUXUXUXUXUXUXUXUXUXUXUXUXUXUX",
"UXUXUXUXUXUXUXUXUXUXUXUXUXUXIXIX).-.d.z.%XVXNXAXCXLXUXIXAXxXbXKXFXUXUXUXUXPXKXUXlXx.:.3.N V.JXUXUXUXUXUXUXUXUXUXUXUXUXUXUXUXUXUX",
"UXUXUXUXUXUXUXUXUXUXUXUXUXUXIXIXpX,.<.^.pXbXIXDXPXUXPXKXIXKXDXFXPXJXFXqXfXkXcXUXUXZ.x.a.C P.GXIXUXUXUXUXUXUXUXUXUXUXUXUXUXUXUXUX",
"UXUXUXUXUXUXUXUXIXIXUXUXUXUXUXUX2X} ! XXBXjX-XK.*XOX|.FXKXFXUXJXUX>XN.*XaXMXJXHXUX7X3.w.;.=XLXJXUXUXUXUXUXUXUXUXUXUXUXUXUXUXUXUX",
"UXUXUXUXUXUXUXUXUXUXUXUXUXUXUXIX+XK <.$XBX Xg.=X=X'.c.Y.*XUXDXUXGXkXlXUXUXPXHXIXUXdX%.>.<.;XUXUXUXUXUXUXUXUXUXUXUXUXUXUXUXUXUXUX",
"UXUXUXUXUXUXUXUXUXUXUXUXUXUXIXPXgXP { 7XNXsX;XcXKXUXKX`.A.uXGXUXUXVXKXCXFXUXPXVXDX6X! U [ ,XPXSXUXUXUXUXUXUXUXUXUXUXUXUXUXUXUXUX",
"UXUXUXUXUXUXUXUXUXUXUXUXUXIXPXPXzX1.K 1XMXMXJX#Xa.b.wX>XN.|.UXqXMX<X<.2.H.K.HXUXUX2XR p A ;XUXUXUXUXUXUXUXUXUXUXUXUXUXUXUXUXUXUX",
"UXUXUXUXUXUXUXUXUXUXUXUXUXIXPXPX*XL.x wXNXxX7.E   u +.N.|.k.I.,XmXr.k b M.L.&XUXJXyXT m 4.>XFXUXUXUXUXUXUXUXUXUXUXUXUXUXUXUXUXUX",
"UXUXUXUXUXUXUXUXUXUXUXUXUXUXIXPXiX).J.}.bXj.H j.r.y.x.P I.,XUXJXsX^ M.`.3XUXUXHXHXJXW o.fXmXUXUXUXUXUXUXUXUXUXUXUXUXUXUXUXUXUXUX",
"UXUXUXUXUXUXUXUXUXUXUXUXUXUXUXIXAX+X9XsXUX}.B.-X=X<X,Xl.#XXXZXZX9XxXmXCXUXAXUXJXFXKX#.O.bXmXUXPXUXUXUXUXUXUXUXUXUXUXUXUXUXUXUXUX",
"UXUXUXUXUXUXUXUXIXIXUXUXUXUXUXUXSXxX%XbXBXmXBXaXbXUXXX;X_.wXAX8XbXbXBXvXUXIXGXKXFXUX&Xm.kXAXUXLXUXUXUXUXUXUXUXUXUXUXUXUXUXUXUXUX",
"UXUXUXUXUXUXUXUXUXUXUXUXUXUXIXIXKX.XXXPXmXlXSXGXGXUX@XW.$XcXCX5XMXxX7XjXHXJXUXPXUXHXsX;XAXjXUXIXUXUXUXUXUXUXUXUXUXUXUXUXUXUXUXUX",
"UXUXUXUXUXUXUXUXUXUXUXUXUXUXIXIXIX,Xh.AXPXNXmXCXLXeX/.eXsXkXZXVXvXH.>XSXSXUXFXUXKXHXSXSXlXmXJXFXUXUXUXUXUXUXUXUXUXUXUXUXUXUXUXUX",
"UXUXUXUXUXUXUXUXUXUXUXUXUXUXIXIXFXhX0XHXPXVXnXBXfX5.f.yXS. XBX.X+Xu.6XGXBXUXKXKXUXUXJXcX9XGXKXUXUXUXUXUXUXUXUXUXUXUXUXUXUXUXUXUX",
"UXUXUXUXUXUXUXUXUXUXUXUXUXUXIXIXPX9XxXSXSXbXmXjXZ.3.| =..._.-Xf.=X@X7X9XfXFXUXKXHXUXdXR.1XFXSXUXUXUXUXUXUXUXUXUXUXUXUXUXUXUXUXUX",
"UXUXUXUXUXUXUXUXUXUXUXUXUXUXIXIXUX2X).CXCXrXkXBXBXzX|.OXrXhX6XLXIXUXcXuXJXGXUXPXPXUXjX.XZXUXIXUXUXUXUXUXUXUXUXUXUXUXUXUXUXUXUXUX",
"UXUXUXUXUXUXUXUXUXUXUXUXUXUXIXIXKXVXyXwXMXtX0XdXaXeXaXfXvXUXMXjXPXUXUXjXLXUXKXLXGXGXqXzXUXKXHXLXUXUXUXUXUXUXUXUXUXUXUXUXUXUXUXUX",
"UXUXUXUXUXUXUXUXUXUXUXUXUXUXIXIXPXUXUX$XNXMXqX&XqX*XbXmX<XE.Y.,XtXwXqXU.6XJXJXUXUXUX].hXUXJXUXUXUXUXUXUXUXUXUXUXUXUXUXUXUXUXUXUX",
"UXUXUXUXUXUXUXUXUXUXUXUXUXUXIXIXLXHXAXnXCXjXVXMXiX&.,.B.A.1.3.P.3X#XA.9.eXUXKXLXHXUXg.(.UXJXUXJXUXUXUXUXUXUXUXUXUXUXUXUXUXUXUXUX",
"UXUXUXUXUXUXUXUXUXUXUXUXUXUXIXIXUXJXUX1XpXAXnXGXAX`.U.H.`. X@XqXjXLXLXKXUXLXPXPXLXnX/ 3.PXUXGXIXIXIXUXUXUXUXUXUXUXUXUXUXUXUXUXUX",
"UXUXUXUXUXUXUXUXUXUXUXUXUXUXIXIXHXUXSXGX#XvXVXVXJXZXBXnXuX;XS.Q.|.MXUXIXKXUXUXKXUXiX0.7.kXUXIXIXIXIXUXUXUXUXUXUXUXUXUXUXUXUXUXUX",
"UXUXUXUXUXUXUXUXUXUXUXUXUXUXIXIXUXHXUXHX$XwXZXJXFXvXcXcX1X|.`.xXMXGXFXIXIXZXKXUXjXpXg.W.qXLXUXUXIXIXUXUXUXUXUXUXUXUXUXUXUXUXUXUX",
"UXUXUXUXUXUXUXUXUXUXUXUXUXUXIXIXUXUXKXIXmXZ.cXHXzXeXrX&X6XbXPXFXHXUXGXSXLXUXLXcXkX_.N.lXyXBXGXPXIXIXUXUXUXUXUXUXUXUXUXUXUXUXUXUX",
"UXUXUXUXUXUXUXUXUXUXUXUXUXUXIXIXUXZXUXUXiX0.Y.zXUX0X[.).dXCXAXAXCXUXPXGXSXHXJXcXvX6.,XSXhXcXNXHXIXIXUXUXUXUXUXUXUXUXUXUXUXUXUXUX",
"UXUXUXUXUXUXUXUXUXUXUXUXUXUXIXIXFXUXKXzXU._ H.oX>XcXOXM.H.XX@XaXHXCXvXNXmXMXJXFXP.T.FXnXbXCXNXGXIXIXUXUXUXUXUXUXUXUXUXUXUXUXUXUX",
"UXUXUXUXUXUXUXUXUXUXUXUXUXUXIXIXLXPXSX^.v.1.B.#XL.-X<X<X(.S.G.>X8XfXgXfXmXUXKX:Xn.mXDXnXGXSXZXFXIXIXUXUXUXUXUXUXUXUXUXUXUXUXUXUX",
"UXUXUXUXUXUXUXUXUXUXUXUXUXUXIXIXIXGX=X~.].c.h.iXoXI.XX4X1X,XgX4XfXlXbXGXUXPXaXT.NXhXlXmXUXcXDXZXIXIXUXUXUXUXUXUXUXUXUXUXUXUXUXUX",
"UXUXUXUXUXUXUXUXIXUXUXPXUXUXPXKXIX8Xg.$X(.P.c.HXrX`.C.K.oX7XyXuXpXNXDXHXJXSX_.yXuXfXnXDXHXSXBXBXHXPXSXLXUXKXIXUXUXUXUXUXUXUXUXUX",
"UXUXUXUXUXUXUXUXJXUXPXUXVXUXLXUXjXj./..X`.z.6.xXLX8X(.J.I.#X8X1XjXLXCXLXUX4X=XBXMXNXSXjXDXMXPXNXAXPXGXLXUXLXUXUXUXUXUXUXUXUXUXUX",
"UXUXUXUXUXUXUXUXUXFXUXJXUXUXUXdXA.Q.XXJ.m.&.6.AXZXcXlXtX<XyXkX0XnXPXIXGXfX8XNXvXNXBXMXcXLXBXIXbXmXPXKXPXUXPXUXIXUXUXUXUXUXUXUXUX",
"UXUXUXUXUXUXUXUXUXIXIXUXDXKXlX&XL.T.^.h.:.$.B.HXxXvXMXmXnXAXGXCXUXLXGXsX:XcXfXaXxXxXyXFXJXCXBXvXzXPXIXPXUXIXUXLXUXUXUXUXUXUXUXUX",
"UXUXUXUXUXUXUXUXUXJXLXUXFXZX5XK.=X$X4XN.W 6.4.FXAXMXfXlXJXHXZXPXUXCX0X6XlX2XZ.yXVXMXuXCXMXmXcXcXkXPXUXIXUXUXUXKXUXUXUXUXUXUXUXUX",
"UXUXUXUXUXUXUXUXPXGXUXDXZXwX-XJ.9X,Xh.w.i.{ 6.1XnXZXVXDXUXHXCXUXzX9X>XbXIXM.u.|.bXBXSXnXNXNXvXaXzXPXUXIXUXIXUXPXUXUXUXUXUXUXUXUX",
"UXUXUXUXUXUXUXUXLXUXHXMX$X.X^.].H.6.^ O.P.V  X1XyXcXGXDXMXAXHXCXwX0XgXUXqX4.S.m.oX4XNXcXbXSXhXuXbXPXPXIXUXIXUXIXUXUXUXUXUXUXUXUX",
"UXUXUXUXUXUXUXUXUXMXpXqXaX&XA.6.:.t.,.Y i.8X%X7X8XiXFXGXmXUXHX@XbXPXHXSXL.;.K.b.k.L.>XdXeXAXwXkXNXPXLXIXUXPXUXUXUXUXUXUXUXUXUXUX",
"UXUXUXUXUXUXIXIXIXMXhXpX$X>X^.8.#.o.$.o.%.Z./.=X5XT.lXnXHXZX;XVX8XB.a.m.| m.F.v.j.n.c.&X+XaX^.vXrXLXUXIXIXUXUXJXUXUXUXUXUXUXUXUX",
"UXUXUXUXUXUXIXIXDXxXjXVXnXCX:Xl.-.2.9.6.,.h.B.~.eX{.L.MXIXtXjX'.z._.6XoXU.G.J.K.G.S.G.L.eXyX<XwXDXDXDXHXJXUXUXUXUXUXUXUXUXUXUXUX",
"UXUXUXUXUXUXIXIXPXUXUXUXZXGXAXbX+XyXjXqX(.L.U.oXW.NX).`.1X~.}.D.[.dXMXtXMXiX0X>X}.^.J.U.*XiXSXlXbXcXIXUXPXKXLXGXUXUXUXUXUXUXUXUX",
"UXUXUXUXUXUXIXIXIXUXUXIXPXUXIXUXUXIXbXBXGXHXqXXX).).cXN.u.Q.I.yXKXLXmXGXFXKXUXGXAXSXMXAX).|.FXDXNXCXUXIXLXKXIXUXUXUXUXUXUXUXUXUX",
"UXUXUXUXUXUXIXIXIXKXDXGXUXUXGXSXuXnXBXVXMXHXxXiXhX:XwXN.J.9XKXHXIXZXlXUXBXSXUXGXUXCXLXUXmX9XUXKXPXJXPXDXUXSXZXUXUXUXUXUXUXUXUXUX",
"UXUXUXUXUXUXIXIXUXUXUXKXIXFXIXUXkXkXVXmXjXKXvXgXMXbXOX:.<XPXlXbXFXCXbXMXLXGXJXSXFXJXUXKXMX0XSXUXUXIXIXPXUXuXcXPXUXUXUXUXUXUXUXUX",
"UXUXUXUXUXUXIXIXIXKXUXLXUXIXIXDXZX7XgXhXaXPXlXfXAXNX[./.CXFXmXGXJXJXUXvXLXSXPXUXUXUXSXjX+XZXLXJXPXPXPXVXpX*XKXUXUXUXUXUXUXUXUXUX",
"UXUXUXUXUXUXIXIXUXLXUXLXUXIXUXKXUX<XgXzXaXPXjXxXnXVX:X8XnXKXNXvXUXvXFXZXUXIXHXDXPXNXLX0Xk.VXUXvX7XiXzXuX$XXXPX9XUXUXUXUXUXUXUXUX"
};
